<?xml version="1.0" encoding="UTF-8"?>
<svg version="1.1" xmlns="http://www.w3.org/2000/svg" viewBox="-10 -10 545 135" width="525" height="115">
<path d="M0 0 C1.31634682 -0.01073296 1.31634682 -0.01073296 2.6592865 -0.02168274 C3.62449722 -0.02437164 4.58970795 -0.02706055 5.58416748 -0.02983093 C6.59894669 -0.03640213 7.61372589 -0.04297333 8.65925598 -0.04974365 C12.0284329 -0.06950674 15.39756518 -0.08114618 18.76678467 -0.09111023 C19.91588066 -0.09518576 21.06497665 -0.09926128 22.24889374 -0.10346031 C28.3311902 -0.12433423 34.41346401 -0.13863004 40.49578857 -0.147995 C46.78188398 -0.1590601 53.06762547 -0.19345778 59.35359573 -0.23316669 C64.18345808 -0.25929963 69.0132357 -0.26768392 73.84316254 -0.27127647 C76.16041198 -0.27615127 78.47765742 -0.28779052 80.79483795 -0.30631447 C84.03870245 -0.3306337 87.28164618 -0.32975366 90.52557373 -0.32279968 C91.96124443 -0.34201477 91.96124443 -0.34201477 93.42591858 -0.36161804 C99.04650013 -0.31770899 102.46515426 0.23463094 106.81365967 4.14717102 C110.58861998 8.63314585 111.30793757 11.72401445 111.26776123 17.52949524 C111.26834534 18.24238205 111.26892944 18.95526886 111.26953125 19.6897583 C111.26676198 22.0276341 111.23572774 24.36420767 111.20428467 26.70185852 C111.19681809 28.32995406 111.19112713 29.95805862 111.18713379 31.58616638 C111.1719101 35.85742802 111.13265709 40.12813979 111.08831787 44.39918518 C111.04729426 48.76302148 111.02910769 53.1269472 111.00897217 57.49092102 C110.96615908 66.04325581 110.8979481 74.59514489 110.81365967 83.14717102 C111.75596436 83.26705383 112.69826904 83.38693665 113.66912842 83.51045227 C116.81365967 84.14717102 116.81365967 84.14717102 119.12615967 86.33467102 C122.15205894 91.37783648 122.04211609 94.96747371 120.75115967 100.58467102 C119.0286813 106.38420827 116.31909043 111.05377705 111.02760696 114.21377659 C108.45444127 115.29861657 106.58107749 115.40656091 103.79284668 115.42132568 C102.78079666 115.43130081 101.76874664 115.44127594 100.72602844 115.45155334 C99.62153854 115.45221802 98.51704865 115.45288269 97.37908936 115.4535675 C96.21117355 115.46189102 95.04325775 115.47021454 93.83995056 115.47879028 C89.97177819 115.50292206 86.10377438 115.51166687 82.23553467 115.51826477 C80.90090086 115.52242492 79.56626792 115.52687729 78.23163605 115.53161812 C71.23927211 115.55610773 64.24698226 115.56916277 57.25457764 115.57270813 C50.74928522 115.57633975 44.24446566 115.60620888 37.73931766 115.64811271 C32.14508674 115.68287794 26.551012 115.69825766 20.95667386 115.69895416 C17.61946224 115.69974511 14.2831142 115.71078282 10.94594574 115.73695183 C7.21881655 115.76384931 3.49298526 115.75904361 -0.23419189 115.74653625 C-1.33058487 115.76137054 -2.42697784 115.77620483 -3.55659485 115.79148865 C-10.34314082 115.72673784 -14.96410546 114.63306396 -20.18634033 110.14717102 C-24.13279345 105.02153673 -25.66330747 97.53202651 -25.18634033 91.14717102 C-23.23620352 87.24689739 -21.80259596 85.55800811 -18.18634033 83.14717102 C-17.19634033 83.14717102 -16.20634033 83.14717102 -15.18634033 83.14717102 C-15.19633308 81.85503944 -15.19633308 81.85503944 -15.20652771 80.5368042 C-15.26675032 72.40098711 -15.31237132 64.26524538 -15.34177685 56.12925625 C-15.35740299 51.94689833 -15.3785851 47.76472529 -15.41265869 43.58247375 C-15.44536156 39.54298153 -15.46321629 35.50366664 -15.47097206 31.4640522 C-15.47649603 29.92633843 -15.48728294 28.38863387 -15.5035305 26.85099602 C-15.52545085 24.6896641 -15.52830129 22.52905599 -15.5269165 20.36763 C-15.53690926 18.52563271 -15.53690926 18.52563271 -15.54710388 16.64642334 C-15.06862131 12.00534681 -13.80150559 7.98015755 -10.65118408 4.40498352 C-6.83004725 1.57089227 -4.72810642 0.0264238 0 0 Z M-3.18634033 13.14717102 C-3.62703067 16.17945717 -3.62703067 16.17945717 -3.5269165 19.80000305 C-3.52727811 20.49409712 -3.52763971 21.18819118 -3.52801228 21.90331841 C-3.5257698 24.15416503 -3.50291033 26.40426993 -3.47930908 28.65498352 C-3.47489924 30.04291932 -3.47183808 31.43086009 -3.47015381 32.81880188 C-3.45441348 37.97000092 -3.41252991 43.12109322 -3.37384033 48.27217102 C-3.31196533 59.78092102 -3.25009033 71.28967102 -3.18634033 83.14717102 C30.80365967 83.14717102 64.79365967 83.14717102 99.81365967 83.14717102 C99.87553467 71.82404602 99.93740967 60.50092102 100.00115967 48.83467102 C100.02847168 45.25969788 100.05578369 41.68472473 100.08392334 38.00141907 C100.09395679 34.79613928 100.09395679 34.79613928 100.09999084 31.59085083 C100.10459689 30.16345414 100.11514678 28.73606911 100.13038635 27.30874634 C100.15232118 25.14620188 100.15537864 22.98437047 100.15423584 20.82173157 C100.16089767 19.60261581 100.16755951 18.38350006 100.17442322 17.12744141 C100.07559187 14.19836249 100.07559187 14.19836249 98.5425539 12.48429298 C96.44088772 10.85887024 95.42292363 10.77232613 92.79058838 10.77294922 C91.97462692 10.76593491 91.15866547 10.75892059 90.31797791 10.75169373 C88.98069389 10.76315933 88.98069389 10.76315933 87.61639404 10.77485657 C86.6746785 10.7712059 85.73296295 10.76755524 84.76271057 10.76379395 C81.64409455 10.75567573 78.52599603 10.76930928 75.40740967 10.78388977 C73.24412028 10.78440822 71.08083042 10.7838911 68.9175415 10.78237915 C64.38137794 10.78246893 59.84539188 10.79291038 55.30926514 10.81098938 C49.48820289 10.83367664 43.66740014 10.83422124 37.84630585 10.82747173 C33.37855718 10.8241338 28.91086791 10.83075854 24.44313049 10.84060097 C22.29647635 10.84445629 20.14981559 10.84559981 18.00315857 10.84401512 C15.00561889 10.84364519 12.00841469 10.85624467 9.01092529 10.87251282 C7.67364128 10.86879669 7.67364128 10.86879669 6.30934143 10.86500549 C5.49337997 10.8720903 4.67741852 10.87917511 3.83673096 10.88647461 C3.12808144 10.88852748 2.41943192 10.89058035 1.68930817 10.89269543 C-0.5193214 11.05296798 -0.5193214 11.05296798 -3.18634033 13.14717102 Z M-13.18634033 94.14717102 C-12.92430725 100.71076684 -12.92430725 100.71076684 -10.42034149 103.06044102 C-7.88768272 104.29245304 -6.25112672 104.52657239 -3.44232178 104.53485107 C-2.01654564 104.54970802 -2.01654564 104.54970802 -0.56196594 104.56486511 C0.47400223 104.56036346 1.5099704 104.55586182 2.57733154 104.55122375 C3.67364395 104.55808701 4.76995636 104.56495026 5.89949036 104.57202148 C9.52726146 104.59033916 13.1546022 104.58644508 16.78240967 104.58076477 C19.30059958 104.58532385 21.81878825 104.5906286 24.3369751 104.59664917 C29.61618987 104.60558981 34.89529261 104.6033791 40.17449951 104.59321594 C46.27538901 104.58173042 52.37583914 104.59581784 58.47667074 104.62261242 C64.34893627 104.64743658 70.22103067 104.64994847 76.09333801 104.64349556 C78.59085318 104.64334192 81.08837664 104.64942145 83.58586121 104.66178703 C87.07423832 104.67662569 90.56164164 104.66607171 94.04998779 104.64888 C95.08595596 104.65854797 96.12192413 104.66821594 97.18928528 104.67817688 C102.60071935 104.66799201 102.60071935 104.66799201 107.42388916 102.49081421 C109.25609733 99.72310907 109.25609733 99.72310907 109.81365967 94.14717102 C69.22365967 94.14717102 28.63365967 94.14717102 -13.18634033 94.14717102 Z " fill="#FFC208" transform="translate(25.18634033203125,-0.1471710205078125)"/>
<path d="M0 0 C5.61 0 11.22 0 17 0 C16.67 1.32 16.34 2.64 16 4 C15.01 4.33 14.02 4.66 13 5 C12.67 11.6 12.34 18.2 12 25 C18.6 25 25.2 25 32 25 C32 18.07 32 11.14 32 4 C29.525 3.505 29.525 3.505 27 3 C27 2.01 27 1.02 27 0 C32.61 0 38.22 0 44 0 C44 1.32 44 2.64 44 4 C42.68 4 41.36 4 40 4 C40 18.19 40 32.38 40 47 C41.65 47 43.3 47 45 47 C45 47.99 45 48.98 45 50 C39.06 50 33.12 50 27 50 C27 49.01 27 48.02 27 47 C28.98 46.505 28.98 46.505 31 46 C31.33 40.06 31.66 34.12 32 28 C25.4 28 18.8 28 12 28 C12.33 33.94 12.66 39.88 13 46 C14.65 46.66 16.3 47.32 18 48 C18 48.66 18 49.32 18 50 C11.73 50 5.46 50 -1 50 C-1 49.01 -1 48.02 -1 47 C0.65 47 2.3 47 4 47 C4 33.14 4 19.28 4 5 C1.525 4.01 1.525 4.01 -1 3 C-0.67 2.01 -0.34 1.02 0 0 Z " fill="#FFC209" transform="translate(163,41)"/>
<path d="M0 0 C1.91541138 -0.10841951 3.83259773 -0.18578079 5.75 -0.25 C6.81734375 -0.29640625 7.8846875 -0.3428125 8.984375 -0.390625 C12.85128491 0.11027007 13.63155071 0.92819304 16 4 C17.82242238 6.7384864 19.51213411 9.54468968 21.1875 12.375 C22.15489325 13.9851909 23.12366327 15.59455539 24.09375 17.203125 C24.81884766 18.40678711 24.81884766 18.40678711 25.55859375 19.63476562 C28.92657251 25.16135407 32.47584049 30.57232289 36 36 C36.02469575 31.90658501 36.04285793 27.81319879 36.05493164 23.71972656 C36.0599643 22.32681523 36.06679098 20.9339092 36.07543945 19.54101562 C36.08755152 17.54038754 36.09270412 15.53972112 36.09765625 13.5390625 C36.10289307 12.33459473 36.10812988 11.13012695 36.11352539 9.88916016 C36.20087891 7.0586323 36.20087891 7.0586323 35 5 C32.98330173 3.86649466 32.98330173 3.86649466 31 3 C31.33 2.01 31.66 1.02 32 0 C36.62 0 41.24 0 46 0 C46.495 1.485 46.495 1.485 47 3 C46.0409375 3.4021875 46.0409375 3.4021875 45.0625 3.8125 C42.66868314 4.88667752 42.66868314 4.88667752 42 8 C41.88705254 9.39579273 41.82410813 10.79599909 41.79467773 12.19604492 C41.77473251 13.03668991 41.75478729 13.8773349 41.73423767 14.74345398 C41.70916893 16.09827629 41.70916893 16.09827629 41.68359375 17.48046875 C41.66281265 18.40845779 41.64203156 19.33644684 41.62062073 20.29255676 C41.55522677 23.2574624 41.49628738 26.22245672 41.4375 29.1875 C41.39430513 31.1972748 41.35069053 33.20704063 41.30664062 35.21679688 C41.19955573 40.14444032 41.09825955 45.07217299 41 50 C38.14038086 50.18188477 38.14038086 50.18188477 35 50 C33.16548611 47.6231081 31.91097249 45.57862779 30.5625 42.9375 C29.71821079 41.39255514 28.86755267 39.8510796 28.01171875 38.3125 C27.54427246 37.46945313 27.07682617 36.62640625 26.59521484 35.7578125 C23.56466991 30.51859678 20.2047855 25.48971023 16.875 20.4375 C16.19896729 19.40810303 15.52293457 18.37870605 14.82641602 17.31811523 C13.22093737 14.87652299 11.61225436 12.43712117 10 10 C9.97519938 14.32331963 9.95709242 18.64660106 9.94506836 22.9699707 C9.94005331 24.43937909 9.93323967 25.90878252 9.92456055 27.37817383 C9.91237072 29.49561795 9.90674331 31.61299583 9.90234375 33.73046875 C9.89710693 35.00301514 9.89187012 36.27556152 9.88647461 37.58666992 C9.98460394 40.5370919 10.30936165 43.13946675 11 46 C12.65 46.33 14.3 46.66 16 47 C16 47.99 16 48.98 16 50 C10.72 50 5.44 50 0 50 C0 49.01 0 48.02 0 47 C0.639375 46.731875 1.27875 46.46375 1.9375 46.1875 C4.33131686 45.11332248 4.33131686 45.11332248 5 42 C5.0853013 39.12305329 5.11585645 36.27099818 5.09765625 33.39453125 C5.09553383 32.13572395 5.09553383 32.13572395 5.09336853 30.85148621 C5.08777215 28.17178784 5.07522035 25.4921731 5.0625 22.8125 C5.05748453 20.99544392 5.05292171 19.17838652 5.04882812 17.36132812 C5.03780391 12.90751987 5.02054178 8.45377411 5 4 C3.35 3.67 1.7 3.34 0 3 C0 2.01 0 1.02 0 0 Z " fill="#FFC208" transform="translate(364,41)"/>
<path d="M0 0 C6.53197271 3.47506716 10.64829061 9.37713586 12.83203125 16.31640625 C13.2544559 19.12202699 13.31031531 21.85755106 13.26953125 24.69140625 C13.26050781 25.44019043 13.25148438 26.18897461 13.2421875 26.96044922 C13.02236165 33.9841903 11.81903873 39.15510659 6.890625 44.37109375 C0.82508081 49.93396853 -3.68537418 50.74335391 -11.8671875 50.65234375 C-17.58327674 50.07058792 -21.05723416 47.85469989 -24.69140625 43.484375 C-29.70343699 36.14015655 -31.19601001 28.01152498 -29.85546875 19.28125 C-28.06699338 10.99358289 -24.11727817 5.1212652 -17.16796875 0.31640625 C-11.82064319 -1.4660356 -5.4141374 -1.70716044 0 0 Z M-17.16796875 6.31640625 C-21.28349702 12.19220123 -21.7885938 17.81010119 -21.66796875 24.81640625 C-21.6834375 25.71488281 -21.69890625 26.61335938 -21.71484375 27.5390625 C-21.67514689 34.35699899 -20.28996014 39.83521637 -15.66137695 44.99633789 C-12.73165257 47.58600925 -8.92977299 47.50320817 -5.16796875 47.31640625 C-1.14135386 45.6449812 1.07487409 43.47589487 3.20703125 39.75390625 C6.5979124 31.19121897 6.5979124 18.44159353 3.20703125 9.87890625 C1.12385071 6.19666459 -1.28607396 4.10207785 -5.16796875 2.31640625 C-10.3914799 1.44582106 -13.22450153 2.88730432 -17.16796875 6.31640625 Z " fill="#FFC208" transform="translate(478.16796875,41.68359375)"/>
<path d="M0 0 C1.2065625 0.0309375 1.2065625 0.0309375 2.4375 0.0625 C6.20157983 9.07644387 9.39527755 18.28564932 12.625 27.5 C13.17624235 29.06712412 13.72767328 30.63418191 14.27929688 32.20117188 C18.18493401 43.30480203 18.18493401 43.30480203 19.4375 47.0625 C20.7575 47.0625 22.0775 47.0625 23.4375 47.0625 C23.4375 48.0525 23.4375 49.0425 23.4375 50.0625 C17.4975 50.0625 11.5575 50.0625 5.4375 50.0625 C5.7675 49.0725 6.0975 48.0825 6.4375 47.0625 C7.7575 47.0625 9.0775 47.0625 10.4375 47.0625 C9.1175 43.1025 7.7975 39.1425 6.4375 35.0625 C0.8275 35.0625 -4.7825 35.0625 -10.5625 35.0625 C-11.2225 38.3625 -11.8825 41.6625 -12.5625 45.0625 C-11.2425 45.7225 -9.9225 46.3825 -8.5625 47.0625 C-8.5625 48.0525 -8.5625 49.0425 -8.5625 50.0625 C-13.8425 50.0625 -19.1225 50.0625 -24.5625 50.0625 C-24.5625 49.0725 -24.5625 48.0825 -24.5625 47.0625 C-23.80453125 46.8871875 -23.0465625 46.711875 -22.265625 46.53125 C-18.42862416 44.44640561 -17.67589351 41.49220578 -16.3125 37.5625 C-15.88686768 36.40729858 -15.88686768 36.40729858 -15.45263672 35.22875977 C-14.4634339 32.51519296 -13.50991763 29.7909368 -12.5625 27.0625 C-12.17416992 25.9472998 -11.78583984 24.83209961 -11.38574219 23.68310547 C-9.74315028 18.95433358 -8.1030053 14.22507706 -6.49511719 9.484375 C-6.12805664 8.40542969 -5.76099609 7.32648437 -5.3828125 6.21484375 C-5.05555176 5.24538818 -4.72829102 4.27593262 -4.39111328 3.27709961 C-3.19410451 0.07790499 -3.19410451 0.07790499 0 0 Z M-2.5625 9.0625 C-3.73421756 12.35239086 -4.89901088 15.64469102 -6.0625 18.9375 C-6.39636719 19.87464844 -6.73023438 20.81179687 -7.07421875 21.77734375 C-7.54794922 23.12119141 -7.54794922 23.12119141 -8.03125 24.4921875 C-8.32451172 25.31960449 -8.61777344 26.14702148 -8.91992188 26.99951172 C-9.66162901 29.02062785 -9.66162901 29.02062785 -9.5625 31.0625 C-4.6125 31.0625 0.3375 31.0625 5.4375 31.0625 C3.48660592 23.55155779 1.20038395 16.31331726 -1.5625 9.0625 C-1.8925 9.0625 -2.2225 9.0625 -2.5625 9.0625 Z " fill="#FFC208" transform="translate(235.5625,40.9375)"/>
<path d="M0 0 C5.94197967 0.95685955 8.75536604 4.51300655 12.8046875 8.7578125 C13.57554688 9.51835938 14.34640625 10.27890625 15.140625 11.0625 C18.272203 14.26023809 20.59841679 16.70350522 22.11328125 20.953125 C21.89431464 24.14910576 21.34019678 25.1146405 19.1171875 27.3828125 C18.4778125 28.04925781 17.8384375 28.71570313 17.1796875 29.40234375 C16.4371875 30.13839844 15.6946875 30.87445313 14.9296875 31.6328125 C13.6303125 32.96892578 13.6303125 32.96892578 12.3046875 34.33203125 C4.23810315 42.55103652 4.23810315 42.55103652 -0.0703125 42.8203125 C-3.0703125 42.6328125 -3.0703125 42.6328125 -5.0703125 40.6328125 C-5.5390625 37.37890625 -5.5390625 37.37890625 -5.0703125 33.6328125 C-3.26311615 31.3122081 -1.72546316 29.60953109 0.4296875 27.6953125 C0.95433594 27.20224609 1.47898437 26.70917969 2.01953125 26.20117188 C3.30756115 24.99510751 4.61663013 23.81157991 5.9296875 22.6328125 C4.42043421 18.95919047 2.24154459 16.94483717 -0.6953125 14.3203125 C-4.97947717 10.1530512 -4.97947717 10.1530512 -5.7578125 5.6953125 C-4.83893077 1.60211206 -4.11335336 0.84779039 0 0 Z " fill="#FFC108" transform="translate(99.0703125,25.3671875)"/>
<path d="M0 0 C3.03515625 0.7265625 3.03515625 0.7265625 5.03515625 3.7265625 C5.53515625 6.01953125 5.53515625 6.01953125 5.03515625 8.7265625 C3.27899513 11.09208125 1.19142227 13.04063127 -0.96484375 15.0390625 C-1.5371875 15.58884766 -2.10953125 16.13863281 -2.69921875 16.70507812 C-4.11008324 18.0571566 -5.53604887 19.39344585 -6.96484375 20.7265625 C-6.56547607 21.1918335 -6.1661084 21.65710449 -5.75463867 22.13647461 C-4.73258545 23.33031037 -3.71610018 24.52892062 -2.703125 25.73046875 C-1.57529642 27.02557078 -0.4069837 28.28688551 0.8046875 29.50390625 C5.03515625 33.87307889 5.03515625 33.87307889 5.03515625 38.6015625 C4.70515625 39.6328125 4.37515625 40.6640625 4.03515625 41.7265625 C1.19698608 43.14564758 -0.81887634 43.02087366 -3.96484375 42.7265625 C-6.29833984 41.16943359 -6.29833984 41.16943359 -8.48828125 39 C-9.28105469 38.21496094 -10.07382812 37.42992187 -10.890625 36.62109375 C-11.69886719 35.78964844 -12.50710937 34.95820312 -13.33984375 34.1015625 C-14.17128906 33.29332031 -15.00273438 32.48507813 -15.859375 31.65234375 C-16.64441406 30.85957031 -17.42945313 30.06679688 -18.23828125 29.25 C-18.95419434 28.52731934 -19.67010742 27.80463867 -20.40771484 27.06005859 C-22.44537592 24.00644233 -22.52227651 22.33358399 -21.96484375 18.7265625 C-19.60937185 15.16033401 -16.45264102 12.33291306 -13.40234375 9.3515625 C-12.60248047 8.52011719 -11.80261719 7.68867187 -10.97851562 6.83203125 C-4.3024299 0.19409458 -4.3024299 0.19409458 0 0 Z " fill="#FFC308" transform="translate(47.96484375,25.2734375)"/>
<path d="M0 0 C14.52 0 29.04 0 44 0 C44 4.29 44 8.58 44 13 C39.98221628 11.66073876 39.21976152 9.50865531 37 6 C34.28467583 2.8625173 34.28467583 2.8625173 25 3 C25.33 17.19 25.66 31.38 26 46 C27.65 46 29.3 46 31 46 C31.33 46.99 31.66 47.98 32 49 C25.4 49 18.8 49 12 49 C12 48.01 12 47.02 12 46 C14.475 45.505 14.475 45.505 17 45 C17.33 31.14 17.66 17.28 18 3 C8.1583125 3.78102652 8.1583125 3.78102652 5.0625 9.125 C4.72347656 9.84945312 4.38445312 10.57390625 4.03515625 11.3203125 C3.52275391 12.15175781 3.52275391 12.15175781 3 13 C2.01 13 1.02 13 0 13 C0 8.71 0 4.42 0 0 Z " fill="#FFC109" transform="translate(289,42)"/>
<path d="M0 0 C3.28369141 0.56298828 3.28369141 0.56298828 5.28369141 2.56298828 C6.09337379 8.84408727 4.25139143 12.05930359 0.76025391 16.95751953 C0.29888031 17.63094894 -0.16249329 18.30437836 -0.6378479 18.99821472 C-2.10735769 21.13479094 -3.59899596 23.25479546 -5.09130859 25.37548828 C-6.0875437 26.81915473 -7.08235113 28.26380748 -8.07568359 29.70947266 C-15.24032774 40.08700743 -15.24032774 40.08700743 -17.71630859 42.56298828 C-20.84672589 42.8960114 -22.89529157 43.03970784 -25.65380859 41.43798828 C-27.30364765 38.52650759 -26.53364354 36.7741796 -25.71630859 33.56298828 C-24.35822671 30.83014453 -22.72714694 28.30647831 -21.05224609 25.75830078 C-20.58194977 25.03432098 -20.11165344 24.31034119 -19.62710571 23.56442261 C-18.63233484 22.04301196 -17.63183395 20.52533428 -16.62597656 19.01123047 C-15.09262295 16.689978 -13.59787897 14.34666356 -12.10302734 12.00048828 C-11.13004339 10.52242471 -10.15485592 9.04580882 -9.17724609 7.57080078 C-8.735289 6.86778839 -8.29333191 6.164776 -7.83798218 5.44046021 C-5.34388248 1.77773477 -4.56910946 0.69218016 0 0 Z " fill="#FFC208" transform="translate(83.71630859375,25.43701171875)"/>
<path d="M0 0 C6.27 0 12.54 0 19 0 C19 0.99 19 1.98 19 3 C17.35 3.33 15.7 3.66 14 4 C13.98541748 5.12494873 13.97083496 6.24989746 13.95581055 7.40893555 C13.89772246 11.59317387 13.82049036 15.77687997 13.73754883 19.96069336 C13.70434886 21.76952458 13.67630159 23.57845818 13.65356445 25.38745117 C13.61992742 27.99181633 13.56760805 30.5952476 13.51171875 33.19921875 C13.50213387 34.40731453 13.50213387 34.40731453 13.49235535 35.63981628 C13.34644334 41.24516101 12.30692646 44.73772373 8.18359375 48.78125 C3.81608983 51.21892661 -1.17446142 50.69124359 -6 50 C-9.25 47.9375 -9.25 47.9375 -11 45 C-11.49340272 41.42283026 -11.66394664 39.18034958 -9.875 36 C-7.06863762 34.50327339 -4.99840718 35.26705602 -2 36 C-1.375 38.3125 -1.375 38.3125 -1 41 C-1.66 41.99 -2.32 42.98 -3 44 C-3.66 44 -4.32 44 -5 44 C-4.67 44.66 -4.34 45.32 -4 46 C-0.56206661 45.81870185 -0.56206661 45.81870185 3 45 C5.86836405 41.41771663 5.25233061 36.8720312 5.1953125 32.515625 C5.19106766 31.29223419 5.19106766 31.29223419 5.18673706 30.04412842 C5.17556558 27.44593472 5.15046675 24.84808905 5.125 22.25 C5.11496627 20.48568207 5.10584111 18.72135872 5.09765625 16.95703125 C5.07563619 12.63788727 5.04112733 8.31900259 5 4 C2.525 3.01 2.525 3.01 0 2 C0 1.34 0 0.68 0 0 Z " fill="#FFC208" transform="translate(506,42)"/>
<path d="M0 0 C6.93 0 13.86 0 21 0 C21.33 0.99 21.66 1.98 22 3 C19.69 3.66 17.38 4.32 15 5 C15 18.86 15 32.72 15 47 C16.98 47 18.96 47 21 47 C21.33 47.99 21.66 48.98 22 50 C14.41 50 6.82 50 -1 50 C-0.67 49.01 -0.34 48.02 0 47 C2.97 46.505 2.97 46.505 6 46 C6 32.47 6 18.94 6 5 C4.02 4.34 2.04 3.68 0 3 C0 2.01 0 1.02 0 0 Z " fill="#FFC208" transform="translate(338,41)"/>
<path d="M0 0 C6.93 0 13.86 0 21 0 C21.33 0.99 21.66 1.98 22 3 C19.69 3.66 17.38 4.32 15 5 C15 18.86 15 32.72 15 47 C16.98 47 18.96 47 21 47 C21.33 47.99 21.66 48.98 22 50 C14.41 50 6.82 50 -1 50 C-0.67 49.01 -0.34 48.02 0 47 C2.97 46.505 2.97 46.505 6 46 C6 32.47 6 18.94 6 5 C4.02 4.34 2.04 3.68 0 3 C0 2.01 0 1.02 0 0 Z " fill="#FFC208" transform="translate(263,41)"/>
<path d="M0 0 C2.375 0.6875 2.375 0.6875 3.375 1.6875 C3.61029412 7.21691176 3.61029412 7.21691176 2.375 9.6875 C-1 9.875 -1 9.875 -4.625 9.6875 C-6.625 6.6875 -6.625 6.6875 -6.4375 4.125 C-5.25106036 0.56568108 -3.72738931 -0.44373682 0 0 Z " fill="#FFC308" transform="translate(438.625,81.3125)"/>
<path d="M0 0 C2.375 0.6875 2.375 0.6875 3.375 1.6875 C3.61029412 7.21691176 3.61029412 7.21691176 2.375 9.6875 C-1 9.875 -1 9.875 -4.625 9.6875 C-6.625 6.6875 -6.625 6.6875 -6.4375 4.125 C-5.25106036 0.56568108 -3.72738931 -0.44373682 0 0 Z " fill="#FFC308" transform="translate(421.625,81.3125)"/>
<path d="M0 0 C2.375 0.6875 2.375 0.6875 3.375 1.6875 C3.5625 4.625 3.5625 4.625 3.375 7.6875 C1.375 9.6875 1.375 9.6875 -1.625 10 C-2.615 9.896875 -3.605 9.79375 -4.625 9.6875 C-6.625 6.6875 -6.625 6.6875 -6.4375 4.125 C-5.25106036 0.56568108 -3.72738931 -0.44373682 0 0 Z " fill="#FFC209" transform="translate(438.625,60.3125)"/>
<path d="M0 0 C2.375 0.6875 2.375 0.6875 3.375 1.6875 C3.5625 4.625 3.5625 4.625 3.375 7.6875 C1.375 9.6875 1.375 9.6875 -1.625 10 C-2.615 9.896875 -3.605 9.79375 -4.625 9.6875 C-6.625 6.6875 -6.625 6.6875 -6.4375 4.125 C-5.25106036 0.56568108 -3.72738931 -0.44373682 0 0 Z " fill="#FFC209" transform="translate(421.625,60.3125)"/>
</svg>
